<svg width="20" height="20" viewBox="0 0 20 20" fill="none" xmlns="http://www.w3.org/2000/svg">
<path d="M4.92918 8.84625C3.91518 8.93271 2.95879 9.51584 2.41723 10.4956C1.54644 12.0721 2.08307 14.0775 3.61394 14.9725C5.14482 15.8693 7.09216 15.3166 7.9613 13.7402C8.50287 12.7604 8.49958 11.6144 8.05348 10.6736" stroke="#1F1E1D" stroke-width="1.2" stroke-miterlimit="10"/>
<path d="M15.0708 8.84625C16.0848 8.93271 17.0412 9.51584 17.5828 10.4956C18.4535 12.0721 17.9169 14.0775 16.386 14.9725C14.8552 15.8693 12.9078 15.3166 12.0387 13.7402C11.4971 12.7621 11.5004 11.6161 11.9465 10.6753" stroke="#1F1E1D" stroke-width="1.2" stroke-miterlimit="10"/>
<path d="M5.05261 12.3671L6.82547 8.33606H11.2288" stroke="#1F1E1D" stroke-width="1.2" stroke-miterlimit="10"/>
<path d="M10.0684 5C10.3136 5 11.8412 5 11.8412 5L14.3087 12.0908" stroke="#1F1E1D" stroke-width="1.2" stroke-miterlimit="10"/>
</svg>
