<svg width="20" height="20" viewBox="0 0 20 20" fill="none" xmlns="http://www.w3.org/2000/svg">
<path d="M7.66915 3.33327L7.70831 3.3316L7.74665 3.33244C7.76534 3.33352 7.78397 3.33547 7.80248 3.33827L7.81581 3.3416C7.88748 3.35327 7.95748 3.37827 8.02581 3.41827L8.06831 3.4466L12.2933 6.41744L16.5166 3.44994C16.6043 3.38838 16.7062 3.35036 16.8127 3.33952C16.9193 3.32869 17.0268 3.3454 17.125 3.38807C17.2232 3.43073 17.3088 3.49791 17.3736 3.58317C17.4384 3.66842 17.4802 3.76889 17.495 3.87494L17.5008 3.9616V12.8216C17.5008 12.9072 17.4832 12.992 17.4491 13.0705C17.415 13.1491 17.3651 13.2198 17.3025 13.2783L17.2358 13.3333L12.6525 16.5549C12.5523 16.6262 12.4332 16.666 12.3104 16.6694C12.1875 16.6728 12.0664 16.6397 11.9625 16.5741L7.70831 13.5808L3.48331 16.5516C3.3957 16.6132 3.29374 16.6512 3.18722 16.662C3.08069 16.6729 2.97317 16.6561 2.87496 16.6135C2.77675 16.5708 2.69114 16.5036 2.62636 16.4184C2.56157 16.3331 2.51978 16.2327 2.50498 16.1266L2.49915 16.0399V7.17994C2.49915 7.09429 2.51676 7.00956 2.55088 6.931C2.58499 6.85244 2.63489 6.78174 2.69748 6.72327L2.76415 6.66827L7.34748 3.4466C7.39858 3.41049 7.45475 3.38213 7.51415 3.36244L7.61581 3.3391L7.66915 3.33327ZM16.2508 5.1641L12.9175 7.50744V14.8399L16.2508 12.4966V5.1641ZM7.08331 5.16077L3.74998 7.5041V14.8374L7.08331 12.4933V5.16077ZM8.33498 5.16077V12.4941L11.6683 14.8366V7.5041L8.33498 5.16077Z" fill="#1F1E1D"/>
</svg>
