<svg width="20" height="20" viewBox="0 0 20 20" fill="none" xmlns="http://www.w3.org/2000/svg">
<path d="M13.0057 11.805H12.3734L12.1492 11.5889C12.9337 10.6764 13.4059 9.49171 13.4059 8.20297C13.4059 5.32933 11.0766 3 8.20297 3C5.32933 3 3 5.32933 3 8.20297C3 11.0766 5.32933 13.4059 8.20297 13.4059C9.49171 13.4059 10.6764 12.9337 11.5889 12.1492L11.805 12.3734V13.0057L15.8073 17L17 15.8073L13.0057 11.805ZM8.20297 11.805C6.20983 11.805 4.60091 10.1961 4.60091 8.20297C4.60091 6.20983 6.20983 4.60091 8.20297 4.60091C10.1961 4.60091 11.805 6.20983 11.805 8.20297C11.805 10.1961 10.1961 11.805 8.20297 11.805Z" fill="#1F1E1D"/>
</svg>
