<svg width="20" height="20" viewBox="0 0 20 20" fill="none" xmlns="http://www.w3.org/2000/svg">
<path d="M16.6225 9.05977C16.7795 8.94283 16.8959 8.77969 16.9555 8.59324C17.0151 8.40678 17.0148 8.20636 16.9547 8.02006C16.8947 7.83377 16.7778 7.67095 16.6205 7.55443C16.4632 7.43791 16.2734 7.37354 16.0777 7.37035L12.2765 7.22675C12.2578 7.22546 12.2399 7.21879 12.2249 7.20755C12.2099 7.19631 12.1985 7.18098 12.192 7.16339L10.8785 3.61562C10.8125 3.43512 10.6926 3.27926 10.5351 3.16914C10.3776 3.05903 10.1901 2.99997 9.99789 2.99997C9.8057 2.99997 9.61816 3.05903 9.46065 3.16914C9.30314 3.27926 9.18327 3.43512 9.11728 3.61562L7.80798 7.17607C7.80151 7.19365 7.79009 7.20898 7.7751 7.22022C7.76012 7.23146 7.7422 7.23813 7.72351 7.23942L3.92232 7.38302C3.7266 7.38622 3.53679 7.45058 3.3795 7.5671C3.22222 7.68362 3.10534 7.84644 3.04526 8.03273C2.98518 8.21903 2.98491 8.41945 3.04449 8.60591C3.10407 8.79236 3.22051 8.9555 3.37748 9.07244L6.3593 11.4165C6.37423 11.4283 6.38538 11.4441 6.39138 11.4621C6.39739 11.4801 6.39798 11.4995 6.39309 11.5179L5.36677 15.1543C5.31359 15.3395 5.31874 15.5366 5.38153 15.7187C5.44431 15.9009 5.56169 16.0593 5.71768 16.1723C5.87368 16.2854 6.06072 16.3477 6.25336 16.3507C6.446 16.3537 6.63489 16.2973 6.79433 16.1891L9.94509 14.0773C9.96061 14.0666 9.97903 14.0609 9.99789 14.0609C10.0167 14.0609 10.0352 14.0666 10.0507 14.0773L13.2014 16.1891C13.3587 16.301 13.5469 16.3611 13.74 16.3611C13.933 16.3611 14.1212 16.301 14.2785 16.1891C14.4345 16.0771 14.552 15.9195 14.6148 15.738C14.6775 15.5565 14.6825 15.3599 14.629 15.1755L13.5942 11.5263C13.5888 11.508 13.5891 11.4884 13.5951 11.4703C13.6012 11.4522 13.6126 11.4363 13.628 11.425L16.6225 9.05977Z" fill="#1F1E1D"/>
</svg>
