<svg width="30" height="30" viewBox="0 0 30 30" fill="none" xmlns="http://www.w3.org/2000/svg">
<path fill-rule="evenodd" clip-rule="evenodd" d="M22.3406 7.60624L19.2625 8.53124L21.3125 13.8925C22.5479 13.5899 23.8521 13.7694 24.9597 14.3946C26.0674 15.0198 26.8951 16.0435 27.2745 17.2575C27.6539 18.4715 27.5563 19.7844 27.0018 20.929C26.4472 22.0736 25.4773 22.9639 24.2894 23.4185C23.1016 23.8732 21.7852 23.8581 20.6081 23.3763C19.431 22.8945 18.4817 21.9822 17.9536 20.8252C17.4254 19.6682 17.358 18.3534 17.7652 17.1484C18.1723 15.9435 19.0233 14.9389 20.145 14.3394L19.115 11.6456L15.5638 19.0219C15.5126 19.1278 15.4325 19.2172 15.3328 19.2797C15.233 19.3421 15.1177 19.3752 15 19.375H12.4613C12.3008 20.6358 11.6663 21.7882 10.6867 22.598C9.70715 23.4078 8.45596 23.8142 7.18748 23.7346C5.91901 23.655 4.72843 23.0954 3.85774 22.1695C2.98705 21.2436 2.50158 20.021 2.5 18.75C2.49905 17.4775 2.98334 16.2525 3.85418 15.3246C4.72501 14.3967 5.91687 13.8358 7.1869 13.7561C8.45693 13.6764 9.70955 14.0839 10.6895 14.8957C11.6695 15.7075 12.3031 16.8623 12.4613 18.125H14.0238L10.9738 9.58499C10.9497 9.51759 10.9374 9.44655 10.9375 9.37499H10C9.83424 9.37499 9.67527 9.30914 9.55806 9.19193C9.44085 9.07472 9.375 8.91575 9.375 8.74999C9.375 8.58423 9.44085 8.42526 9.55806 8.30805C9.67527 8.19084 9.83424 8.12499 10 8.12499H12.8125C12.9783 8.12499 13.1372 8.19084 13.2544 8.30805C13.3717 8.42526 13.4375 8.58423 13.4375 8.74999C13.4375 8.91575 13.3717 9.07472 13.2544 9.19193C13.1372 9.30914 12.9783 9.37499 12.8125 9.37499H12.2263L13.3775 12.5981L18.4569 9.92499L17.8538 8.34811C17.8231 8.26781 17.8092 8.18204 17.8132 8.09616C17.8172 8.01029 17.8388 7.92615 17.8767 7.84901C17.9147 7.77187 17.9682 7.7034 18.0338 7.64786C18.0994 7.59232 18.1758 7.55092 18.2581 7.52624L21.9813 6.40936L22.3406 7.60624ZM13.8019 13.7875L15.0344 17.2375L17.6781 11.7475L13.8019 13.7875ZM21.9163 18.9731L20.5956 15.5187C19.7858 15.9965 19.185 16.7611 18.9123 17.661C18.6396 18.5608 18.7149 19.5303 19.1233 20.3772C19.5317 21.2242 20.2433 21.8868 21.1172 22.2338C21.9911 22.5808 22.9635 22.5869 23.8417 22.2507C24.7198 21.9146 25.4396 21.2609 25.8585 20.4191C26.2774 19.5772 26.3647 18.6088 26.1032 17.7056C25.8417 16.8024 25.2504 16.0304 24.4466 15.5426C23.6428 15.0548 22.685 14.8868 21.7631 15.0719L23.0838 18.5269C23.1402 18.6811 23.1338 18.8514 23.0657 19.0008C22.9976 19.1503 22.8735 19.267 22.72 19.3256C22.5666 19.3843 22.3963 19.3802 22.2458 19.3142C22.0954 19.2482 21.977 19.1257 21.9163 18.9731ZM11.1981 18.125H7.5C7.33424 18.125 7.17527 18.1908 7.05806 18.308C6.94085 18.4253 6.875 18.5842 6.875 18.75C6.875 18.9157 6.94085 19.0747 7.05806 19.1919C7.17527 19.3091 7.33424 19.375 7.5 19.375H11.1981C11.0389 20.3 10.5387 21.1318 9.7962 21.706C9.05371 22.2803 8.12291 22.5553 7.18756 22.4768C6.2522 22.3983 5.38025 21.972 4.74385 21.2821C4.10744 20.5921 3.75283 19.6886 3.75 18.75C3.74914 17.8091 4.102 16.9023 4.73855 16.2095C5.37511 15.5166 6.24885 15.0884 7.18643 15.0097C8.124 14.931 9.05689 15.2077 9.80001 15.7847C10.5431 16.3618 11.0422 17.1971 11.1981 18.125Z" fill="#1F1E1D"/>
</svg>
