<svg width="20" height="20" viewBox="0 0 20 20" fill="none" xmlns="http://www.w3.org/2000/svg">
<path d="M4.16671 10.8333H14.05L11.025 14.4667C10.955 14.5509 10.9022 14.6482 10.8698 14.7528C10.8373 14.8575 10.8258 14.9675 10.8359 15.0766C10.8562 15.297 10.9632 15.5002 11.1334 15.6417C11.3036 15.7831 11.523 15.8512 11.7433 15.8308C11.9637 15.8105 12.1669 15.7035 12.3084 15.5333L16.475 10.5333C16.5031 10.4936 16.5281 10.4518 16.55 10.4083C16.55 10.3667 16.5917 10.3417 16.6084 10.3C16.6461 10.2044 16.6659 10.1027 16.6667 9.99999C16.6659 9.89725 16.6461 9.79554 16.6084 9.69999C16.6084 9.65833 16.5667 9.63333 16.55 9.59166C16.5281 9.54821 16.5031 9.50643 16.475 9.46666L12.3084 4.46666C12.23 4.37259 12.1319 4.29694 12.021 4.24509C11.9101 4.19324 11.7891 4.16646 11.6667 4.16666C11.472 4.16628 11.2833 4.23409 11.1334 4.35832C11.049 4.42828 10.9792 4.5142 10.9281 4.61116C10.877 4.70811 10.8455 4.8142 10.8354 4.92335C10.8254 5.0325 10.8369 5.14256 10.8695 5.24723C10.902 5.3519 10.9549 5.44912 11.025 5.53332L14.05 9.16666H4.16671C3.94569 9.16666 3.73373 9.25446 3.57745 9.41074C3.42117 9.56702 3.33337 9.77898 3.33337 9.99999C3.33337 10.221 3.42117 10.433 3.57745 10.5892C3.73373 10.7455 3.94569 10.8333 4.16671 10.8333Z" fill="#1F1E1D"/>
</svg>
