<svg width="20" height="20" viewBox="0 0 20 20" fill="none" xmlns="http://www.w3.org/2000/svg">
<path d="M9.48889 17.6801C4.85919 11.0948 4 10.4194 4 8.00006C4 4.68602 6.73867 2 10.1176 2C13.4966 2 16.2353 4.68602 16.2353 8.00006C16.2353 10.4194 15.3761 11.0934 10.7464 17.6775C10.6761 17.7768 10.5824 17.858 10.4732 17.9141C10.364 17.9703 10.2426 17.9997 10.1194 18C9.9961 18.0003 9.87459 17.9713 9.76517 17.9156C9.65576 17.8599 9.56167 17.7792 9.49093 17.6801L9.48957 17.6775L9.48889 17.6801ZM10.1176 10.5001C10.7937 10.5001 11.442 10.2367 11.9201 9.76784C12.3981 9.29899 12.6667 8.6631 12.6667 8.00006C12.6667 7.33701 12.3981 6.70112 11.9201 6.23227C11.442 5.76343 10.7937 5.50003 10.1176 5.50003C9.44161 5.50003 8.79325 5.76343 8.31522 6.23227C7.83718 6.70112 7.56863 7.33701 7.56863 8.00006C7.56863 8.6631 7.83718 9.29899 8.31522 9.76784C8.79325 10.2367 9.44161 10.5001 10.1176 10.5001Z" fill="#1F1E1D"/>
</svg>
