<svg width="20" height="20" viewBox="0 0 20 20" fill="none" xmlns="http://www.w3.org/2000/svg">
<path d="M9.66667 4C5.99067 4 3 6.99067 3 10.6667C3 14.3427 5.99067 17.3333 9.66667 17.3333C13.3427 17.3333 16.3333 14.3427 16.3333 10.6667C16.3333 6.99067 13.3427 4 9.66667 4ZM9.66667 16C6.726 16 4.33333 13.6073 4.33333 10.6667C4.33333 7.726 6.726 5.33333 9.66667 5.33333C12.6073 5.33333 15 7.726 15 10.6667C15 13.6073 12.6073 16 9.66667 16Z" fill="#1F1E1D"/>
<path d="M10.3333 7.33337H9V10.9427L11.1953 13.138L12.138 12.1954L10.3333 10.3907V7.33337Z" fill="#1F1E1D"/>
</svg>
