<svg width="30" height="30" viewBox="0 0 30 30" fill="none" xmlns="http://www.w3.org/2000/svg">
<path d="M18.2844 7.62201H20.4857V13.1013" stroke="#1F1E1D" stroke-width="1.2" stroke-miterlimit="10" stroke-linejoin="round"/>
<path d="M20.4858 20.0263V23.5765H7.43677V7.62201H9.75276" stroke="#1F1E1D" stroke-width="1.2" stroke-miterlimit="10" stroke-linejoin="round"/>
<path d="M25.561 13.0239L24.2876 11.6839L22.9056 12.9186L24.179 14.2586L25.561 13.0239Z" stroke="#1F1E1D" stroke-width="1.2" stroke-miterlimit="10" stroke-linejoin="round"/>
<path fill-rule="evenodd" clip-rule="evenodd" d="M17.8786 19.8895L14.8877 21.2454L16.6037 18.5507L22.9606 12.8746L24.2311 14.2134L17.8786 19.8895Z" stroke="#1F1E1D" stroke-width="1.2" stroke-miterlimit="10" stroke-linejoin="round"/>
<path d="M9.75281 11.6769H18.0242" stroke="#1F1E1D" stroke-width="1.2" stroke-miterlimit="10" stroke-linejoin="round"/>
<path d="M9.75281 14.4401H16.7626" stroke="#1F1E1D" stroke-width="1.2" stroke-miterlimit="10" stroke-linejoin="round"/>
<path d="M9.75281 17.2033H14.6936" stroke="#1F1E1D" stroke-width="1.2" stroke-miterlimit="10" stroke-linejoin="round"/>
<path d="M9.75281 19.9665H13.0878" stroke="#1F1E1D" stroke-width="1.2" stroke-miterlimit="10" stroke-linejoin="round"/>
<path fill-rule="evenodd" clip-rule="evenodd" d="M15.5759 6.71522C15.4524 5.9838 14.8039 5.42346 14.0187 5.42346C13.2334 5.42346 12.5805 5.9838 12.4614 6.71522H10.6263C10.1454 6.71522 9.75281 7.09591 9.75281 7.56642V8.54165H18.2845V7.56642C18.2845 7.09591 17.8919 6.7195 17.411 6.7195H15.5759V6.71522Z" stroke="#1F1E1D" stroke-width="1.2" stroke-miterlimit="10" stroke-linejoin="round"/>
</svg>
