<svg width="30" height="30" viewBox="0 0 30 30" fill="none" xmlns="http://www.w3.org/2000/svg">
<path d="M12.8219 7.73266C12.8219 6.52909 13.7984 5.5564 14.9982 5.5564C16.1979 5.5564 17.1744 6.53288 17.1744 7.73266" stroke="#1F1E1D" stroke-width="1.2" stroke-miterlimit="10" stroke-linejoin="round"/>
<path d="M20.7624 11.7975C21.1674 12.0284 21.4399 12.4675 21.4399 12.9671V24.5069H8.5564V12.9671C8.5564 12.4675 8.8289 12.0284 9.23388 11.7975" stroke="#1F1E1D" stroke-width="1.2" stroke-miterlimit="10" stroke-linejoin="round"/>
<path fill-rule="evenodd" clip-rule="evenodd" d="M18.8927 12.6188H11.1036C9.69562 12.6188 8.5564 11.4758 8.5564 10.0716V7.73264H21.4437V10.0679C21.4437 11.4796 20.3007 12.6188 18.8927 12.6188Z" stroke="#1F1E1D" stroke-width="1.2" stroke-miterlimit="10" stroke-linejoin="round"/>
<path fill-rule="evenodd" clip-rule="evenodd" d="M17.1252 20.9038H12.8748C12.2692 20.9038 11.7772 20.4118 11.7772 19.8062V16.6534H18.219V19.8062C18.2227 20.4118 17.7307 20.9038 17.1252 20.9038Z" stroke="#1F1E1D" stroke-width="1.2" stroke-miterlimit="10" stroke-linejoin="round"/>
<path d="M12.6403 11.0292V13.8678" stroke="#1F1E1D" stroke-width="1.2" stroke-miterlimit="10" stroke-linejoin="round"/>
<path d="M17.3599 11.0292V13.8678" stroke="#1F1E1D" stroke-width="1.2" stroke-miterlimit="10" stroke-linejoin="round"/>
</svg>
